<svg width="24" height="25" viewBox="0 0 24 25" fill="none" xmlns="http://www.w3.org/2000/svg">
<mask id="mask0_100005_4346" style="mask-type:luminance" maskUnits="userSpaceOnUse" x="0" y="0" width="24" height="25">
<path d="M12 24.5C18.6274 24.5 24 19.1274 24 12.5C24 5.87258 18.6274 0.5 12 0.5C5.37258 0.5 0 5.87258 0 12.5C0 19.1274 5.37258 24.5 12 24.5Z" fill="white"/>
</mask>
<g mask="url(#mask0_100005_4346)">
<path d="M0 0.5L0.375 1.53125L0 2.60938V3.6875L1.5 6.21875L0 8.75V10.25L1.5 12.5L0 14.75V16.25L1.5 18.7812L0 21.3125V24.5L1.03125 24.125L2.10938 24.5H3.1875L5.71875 23L8.25 24.5H9.75L12 23L14.25 24.5H15.75L18.2812 23L20.8125 24.5H24L23.625 23.4688L24 22.3906V21.3125L22.5 18.7812L24 16.25V14.75L22.5 12.5L24 10.25V8.75L22.5 6.21875L24 3.6875V0.5L22.9688 0.875L21.8906 0.5H20.8125L18.2812 2L15.75 0.5H14.25L12 2L9.75 0.5H8.25L5.71875 2L3.1875 0.5H0Z" fill="#EEEEEE"/>
<path d="M15.75 0.5V5.5625L20.8125 0.5H15.75ZM24 3.6875L18.9375 8.75H24V3.6875ZM0 8.75H5.0625L0 3.6875V8.75ZM3.1875 0.5L8.25 5.5625V0.5H3.1875ZM8.25 24.5V19.4375L3.1875 24.5H8.25ZM0 21.3125L5.0625 16.25H0V21.3125ZM24 16.25H18.9375L24 21.3125V16.25ZM20.8125 24.5L15.75 19.4375V24.5H20.8125Z" fill="#0052B4"/>
<path d="M0 0.5V2.60938L6.14062 8.75H8.25L0 0.5ZM9.75 0.5V10.25H0V14.75H9.75V24.5H14.25V14.75H24V10.25H14.25V0.5H9.75ZM21.8906 0.5L15.75 6.64062V8.75L24 0.5H21.8906ZM8.25 16.25L0 24.5H2.10938L8.25 18.3594V16.25ZM15.75 16.25L24 24.5V22.3906L17.8594 16.25H15.75Z" fill="#D80027"/>
</g>
</svg>
